<svg id="visual" viewBox="0 0 900 600" width="900" height="600" xmlns="http://www.w3.org/2000/svg" xmlns:xlink="http://www.w3.org/1999/xlink" version="1.1"><path d="M0 91L82 151L164 217L245 205L327 193L409 145L491 199L573 139L655 283L736 199L818 271L900 271L900 0L818 0L736 0L655 0L573 0L491 0L409 0L327 0L245 0L164 0L82 0L0 0Z" fill="#1a916d"></path><path d="M0 223L82 301L164 373L245 319L327 295L409 247L491 277L573 289L655 349L736 319L818 337L900 385L900 269L818 269L736 197L655 281L573 137L491 197L409 143L327 191L245 203L164 215L82 149L0 89Z" fill="#0f8c70"></path><path d="M0 361L82 445L164 451L245 427L327 385L409 343L491 421L573 421L655 481L736 397L818 415L900 439L900 383L818 335L736 317L655 347L573 287L491 275L409 245L327 293L245 317L164 371L82 299L0 221Z" fill="#068872"></path><path d="M0 601L82 601L164 601L245 601L327 601L409 601L491 601L573 601L655 601L736 601L818 601L900 601L900 437L818 413L736 395L655 479L573 419L491 419L409 341L327 383L245 425L164 449L82 443L0 359Z" fill="#038373"></path></svg>